<svg xmlns="http://www.w3.org/2000/svg" width="168.712" height="230.988" viewBox="0 0 168.712 230.988"><defs><style>.a{fill:#5739b2;}.b{fill:#382966;}.c,.s{opacity:0.3;}.d,.n,.s{fill:#fff;}.e{fill:#5c5c5c;}.f{fill:#45483a;}.g{fill:#6258af;}.h,.n{opacity:0.4;mix-blend-mode:soft-light;}.h,.j,.n{isolation:isolate;}.i{fill:#fcce0d;}.j{mix-blend-mode:overlay;}.k{opacity:0.95;}.l{fill:#1a1a1a;}.m{opacity:0.5;}.o{fill:#e6e6e6;}.p{fill:#4d4d4d;}.q{fill:#d3182a;}.r{opacity:0.58;}</style></defs><g transform="translate(-50.813 -355.524)"><g transform="translate(-2198.909 110.828)"><g transform="translate(2249.722 244.696)"><g transform="translate(18.695 100.777)"><g transform="translate(2.759 2.279)"><path class="a" d="M2374.064,664.032c-46.141-.005-57.169-81.038-57.844-86.375l-5.376-19.755,104.227-19.593.554.192c.761.263,18.612,6.608,19.21,21.038.389,9.343-6.888,64.782-31.414,90.734-8.475,8.968-18.156,13.6-28.776,13.755Z" transform="translate(-2310.844 -538.309)"/></g><path d="M2409.8,536.374s17.183,5.951,17.727,19.043-12.27,101.506-58.018,102.19c-.185,0-.363,0-.546,0-45.281,0-55.673-84.6-55.673-84.6l-4.789-17.6,101.3-19.043m.337-4.558-1.153.217-101.3,19.043-4.7.884,1.257,4.616,4.708,17.3a201.06,201.06,0,0,0,11.084,43.041c11.522,29.51,28.443,45.109,48.931,45.109.205,0,.406,0,.612,0,11.238-.168,21.448-5.029,30.349-14.447,25.4-26.874,32.427-82.458,32.016-92.343-.662-15.915-19.877-22.75-20.7-23.033l-1.108-.384Z" transform="translate(-2302.984 -531.816)"/></g><g transform="translate(27.248 127.048)"><path class="b" d="M2393.715,610.934s-37,5.123-35.3,31.031c1.807,27.4,16.213,59.044,36.318,62.751,0,0-8.918,2.927-9.8,2.927s-20.363-5.065-20.363-5.065l-18.825-20.589-14.495-34.64-3.9-22.181v-3.141s12.4-10.3,14.351-10.626,38.054-4.738,38.054-4.738Z" transform="translate(-2327.353 -606.663)"/></g><g class="c" transform="translate(108.378 109.807)"><path class="d" d="M2573.144,649.441c1.536-2.819,17.945-50.149,13.5-66.212s-28.147-7.8-28.147-7.8l26.315-17.89h8.359l.2,7.838v21.031l-11.985,50.067Z" transform="translate(-2558.497 -557.543)"/></g><g transform="translate(19.796 100.777)"><path d="M2411.838,536.374s17.183,5.951,17.727,19.043-12.27,101.506-58.018,102.19c-.17,0-.339,0-.509,0-45.352,0-60.5-90.929-60.5-90.929V555.416l101.3-19.043m.337-4.558-1.153.217-101.3,19.043-3.6.676v15.294l.06.36c.644,3.864,16.321,94.62,64.857,94.62q.287,0,.575,0c11.238-.168,21.448-5.029,30.349-14.447,25.4-26.874,32.426-82.458,32.016-92.343-.662-15.915-19.877-22.75-20.7-23.033l-1.108-.384Z" transform="translate(-2306.122 -531.816)"/></g><g transform="translate(4.417 36.556)"><path class="a" d="M2403.532,426.022l-102.093,25.6a31.477,31.477,0,0,1-39.133-30.531V381.439a30.012,30.012,0,0,1,29.269-30l104.344-2.584a16.809,16.809,0,0,1,17.225,16.8V413.7A12.7,12.7,0,0,1,2403.532,426.022Z" transform="translate(-2262.306 -348.847)"/></g><g transform="translate(47.546 51.79)"><path class="e" d="M2385.184,405.635l14.723-2.587c25.577-4.494,51.665-7.872,77.54-10.038l9.058-.759v50.456a868.661,868.661,0,0,1-93.346,23.877l-7.975,1.574Z" transform="translate(-2385.184 -392.25)"/></g><g transform="translate(43.969 48.14)"><path d="M2381.365,464.865a6.384,6.384,0,0,1-6.373-6.383v-56.8a7.335,7.335,0,0,1,6.076-7.236l12.163-2.137c25.181-4.426,50.873-7.752,76.362-9.887l6.564-.55a6.748,6.748,0,0,1,7.311,6.725v43.279a9.407,9.407,0,0,1-7.071,9.116c-23.877,7.164-48.4,13.62-72.81,19.159l-15.212,3.453-5.767,1.139A6.363,6.363,0,0,1,2381.365,464.865Zm95.36-78.6c-.066,0-.133,0-.2.008l-6.563.55c-25.356,2.124-50.915,5.434-75.967,9.835l-12.162,2.137a2.925,2.925,0,0,0-2.423,2.887v56.8a1.964,1.964,0,0,0,2.345,1.929l5.705-1.126,15.151-3.44c24.308-5.518,48.736-11.947,72.6-19.107a5.02,5.02,0,0,0,3.836-4.861V388.6a2.331,2.331,0,0,0-2.326-2.332Z" transform="translate(-2374.992 -381.851)"/></g><g transform="translate(29.698 39.636)"><path d="M2334.341,364.01c.227,3.2,5.866,5.416,12.595,4.94s12-3.459,11.774-6.663-5.735-5.069-12.465-4.593S2334.114,360.807,2334.341,364.01Z" transform="translate(-2334.334 -357.62)"/></g><g transform="translate(14.917)"><circle cx="12.842" cy="12.842" r="12.842"/></g><g transform="translate(33.519 43.845)"><path class="f" d="M2345.221,372.87c.107,1.516,3.984,2.478,8.658,2.147s8.376-1.828,8.269-3.344-3.9-2.315-8.573-1.985S2345.114,371.354,2345.221,372.87Z" transform="translate(-2345.219 -369.614)"/></g><g transform="translate(26.305 12.297)"><path d="M2344.776,311.289s-4.468-26.811-18.432-31.558l-1.675,3.351s13.126,15.36,10.054,29.324l1.086.618a7.018,7.018,0,0,0,8.968-1.735Z" transform="translate(-2324.668 -279.731)"/></g><g transform="translate(25.434 1.426)"><ellipse class="f" cx="3.622" cy="5.433" rx="3.622" ry="5.433" transform="matrix(0.46, -0.888, 0.888, 0.46, 0, 6.434)"/></g><g transform="translate(118.496 4.933)"><g transform="translate(10.01 32.035)"><path d="M2615.846,352.334c-.051,1.47,2.412,2.748,5.5,2.855s5.633-1,5.683-2.47-2.368-2.584-5.457-2.691S2615.9,350.863,2615.846,352.334Z" transform="translate(-2615.845 -350.02)"/></g><g transform="translate(11.035 33.273)"><path class="f" d="M2618.767,354.555c-.021.672,2.078,1.606,4.642,1.686s4.621-.726,4.642-1.4-2-1.205-4.567-1.285S2618.788,353.884,2618.767,354.555Z" transform="translate(-2618.767 -353.549)"/></g><g transform="translate(7.295 8.711)"><path d="M2619.221,308.876s-1.376-19.232-9.181-25.306l-1.93,3.033s8.307,7.391,5.342,22.171h0a6.676,6.676,0,0,0,5.769.1Z" transform="translate(-2608.11 -283.57)"/></g><circle cx="8.26" cy="8.26" r="8.26"/><g transform="translate(7.287 1.11)"><ellipse class="f" cx="2.33" cy="3.495" rx="2.33" ry="3.495" transform="translate(0 3.75) rotate(-53.587)"/></g></g><g transform="translate(71.555 68.987)"><g transform="translate(0 5.531)"><ellipse class="d" cx="14.007" cy="15.715" rx="14.007" ry="15.715"/></g><g transform="translate(39.903)"><ellipse class="d" cx="12.27" cy="13.976" rx="12.27" ry="13.976"/></g><g transform="translate(43.086 6.245)"><path class="g" d="M2595.028,467.728a.9.9,0,0,1-1.021-.756,7.461,7.461,0,0,0-8.017-5.931,7.547,7.547,0,0,0-6.9,8.679,1.279,1.279,0,0,1-1.1,1.382,1.229,1.229,0,0,1-1.518-.9,9.713,9.713,0,0,1,9.166-11.143,9.588,9.588,0,0,1,10.049,7.6A.889.889,0,0,1,2595.028,467.728Z" transform="translate(-2576.341 -459.039)"/></g><g transform="translate(2.384 10.586)"><path class="g" d="M2482.563,484.37a.977.977,0,0,1-.959-1.127,8.353,8.353,0,0,0-7.752-9.108,9.727,9.727,0,0,0-10.379,9.3,1.538,1.538,0,0,1-1.561,1.4,1.416,1.416,0,0,1-1.533-1.366,12.449,12.449,0,0,1,13.629-12,10.754,10.754,0,0,1,9.688,11.751A1.239,1.239,0,0,1,2482.563,484.37Z" transform="translate(-2460.379 -471.406)"/></g></g><g transform="translate(1.122 52.832)"><path class="b" d="M2305.024,479.293c-1.709-.574-12.795-.753-13.153-12.2s0-54.492,0-54.492a9.635,9.635,0,0,0-2.059-6.006,9.915,9.915,0,0,0-3.529-2.78l-15.316-7.508a10.557,10.557,0,0,0-14.231,4.944c-3.9,8.415-6.241,26.278.2,64.1,0,0,4.7,6.639,5.215,6.9s6.865,6.435,7.9,7.039,10.622,3.388,10.622,3.388,10.881,3.045,13.343,2.139S2305.024,479.293,2305.024,479.293Z" transform="translate(-2252.917 -395.219)"/></g><g class="h" transform="translate(46.177 60.791)"><path class="d" d="M2381.284,484.8V422.092l7.9-2.721,10.6-1.478,35.688,56.681-50.682,12.7Z" transform="translate(-2381.284 -417.893)"/></g><g transform="translate(0 32.139)"><path d="M2388.177,340.68a16.809,16.809,0,0,1,16.8,16.809v48.045a12.7,12.7,0,0,1-9.612,12.321l-102.093,25.6a31.421,31.421,0,0,1-39.133-30.531V373.272a30.012,30.012,0,0,1,29.269-30l104.344-2.584c.142,0,.284-.005.425-.005m0-4.417q-.267,0-.535.007L2283.3,338.854a34.429,34.429,0,0,0-33.577,34.418v39.653a35.839,35.839,0,0,0,44.624,34.815l102.093-25.6a17.1,17.1,0,0,0,12.954-16.6V357.489a21.246,21.246,0,0,0-21.217-21.226Z" transform="translate(-2249.722 -336.263)"/></g><g transform="translate(62.539 25.695)"><g transform="translate(2.074 1.595)"><path class="i" d="M2493.9,329.486c1.493,4.589-3.88,24.99-19.664,27.337-17.8,2.648-39.143-18.375-40.361-24.075-1.194-5.583,13.554-9.846,30.8-10.269C2480.082,322.1,2492.432,324.973,2493.9,329.486Z" transform="translate(-2433.808 -322.447)"/></g><path d="M2463.74,355.686c-8.281-1.187-16.031-5.879-20.521-9.1-7.8-5.6-14.406-12.83-15.213-16.676-1.654-7.877,16.075-11.679,32.4-11.987a82.614,82.614,0,0,1,20.471,1.852c6.069,1.5,9.546,3.728,10.517,6.69,1.006,3.07-.236,9.456-3.023,15.074-2.219,4.472-7.572,12.627-17.461,14.165A24.244,24.244,0,0,1,2463.74,355.686Zm17.554-32.9-.258-.062a78.791,78.791,0,0,0-19.747-1.571,82.5,82.5,0,0,0-21.42,3.146c-6.156,1.954-8.094,4.135-7.82,5.4.453,2.085,5.482,8.287,13.263,13.913,4.053,2.93,11.052,7.23,18.412,8.361a21.13,21.13,0,0,0,6.177.092c8.74-1.241,13.66-8.546,15.734-12.583,2.906-5.657,3.643-11.153,3.092-12.863C2488.4,325.6,2486.281,324.008,2481.295,322.782Z" transform="translate(-2427.899 -317.903)"/><g class="j" transform="translate(6.439 5.757)"><path d="M2468.866,358.354c-5.889-2.5-15.868-7.964-22.439-17.91a.872.872,0,0,1-.122-.836,2.956,2.956,0,0,1,1.661-1.26,49.638,49.638,0,0,1,13.13-4.043,9,9,0,0,0-2.43,4.48C2457.52,344.175,2460.961,350.815,2468.866,358.354Z" transform="translate(-2446.245 -334.305)"/></g><g class="k" transform="translate(53.508 5.511)"><path class="d" d="M2580.346,333.605s5.579,1.242,6.273,3.74c.7,2.526-1.926,9.077-1.926,9.077S2584.42,336.74,2580.346,333.605Z" transform="translate(-2580.346 -333.605)"/></g></g><g transform="translate(15.287 85.091)"><ellipse class="l" cx="4.463" cy="7.668" rx="4.463" ry="7.668"/></g><g transform="translate(91.587 128.515)"><g transform="translate(0 0)"><ellipse cx="24.42" cy="19.427" rx="24.42" ry="19.427" transform="matrix(0.247, -0.969, 0.969, 0.247, 0, 47.321)"/></g><g transform="translate(10.527 8.324)"><ellipse class="i" cx="18.568" cy="13.488" rx="18.568" ry="13.488" transform="matrix(0.247, -0.969, 0.969, 0.247, 0, 35.981)"/></g><g class="j" transform="translate(22.833 11.501)"><path d="M2594.138,665.1c-2.536,9.934-10.444,16.5-17.662,14.657-.26-.066-.51-.139-.763-.231,6.232,1.013,13.067-5.592,15.513-15.17s-.388-18.643-6.343-20.742c.267.041.52.1.78.163C2592.882,645.616,2596.676,655.161,2594.138,665.1Z" transform="translate(-2575.713 -643.61)"/></g><g class="m" transform="translate(17.306 17.325)"><path class="d" d="M2563.965,682.71c-2.967-.757-5.062-6.4-3.423-12.812s6.18-10.36,9.147-9.6,5.061,6.4,3.423,12.812S2566.932,683.468,2563.965,682.71Z" transform="translate(-2559.968 -660.204)"/></g></g></g><path class="n" d="M2651.84,404.083a3.1,3.1,0,0,1-2.212,2.85c-2,.647-4.443-.482-4.443-2.85s2.441-3.5,4.443-2.849A3.1,3.1,0,0,1,2651.84,404.083Z" transform="translate(-256.659 -101.477)"/><g transform="translate(2391.406 384.057)"><circle class="a" cx="4.763" cy="4.763" r="4.763" transform="translate(0.574 0.574)"/><path d="M2653.714,648.912a5.337,5.337,0,1,1,6.842,3.185A5.342,5.342,0,0,1,2653.714,648.912Zm1.37-.5a3.878,3.878,0,1,0,2.314-4.972A3.883,3.883,0,0,0,2655.084,648.412Z" transform="translate(-2653.39 -641.747)"/></g><g transform="translate(2341.558 390.772)"><circle class="a" cx="5.552" cy="5.552" r="5.552" transform="translate(0.669 0.669)"/><path d="M2517.592,673.32a6.221,6.221,0,1,1,6.222-6.221A6.228,6.228,0,0,1,2517.592,673.32Zm0-10.742a4.521,4.521,0,1,0,4.521,4.521A4.526,4.526,0,0,0,2517.592,662.578Z" transform="translate(-2511.371 -660.878)"/></g><g transform="translate(2343.544 335.63)"><g transform="translate(0 0)"><path d="M2524.174,600.628a7.16,7.16,0,0,1-7.119-7.787l6.5-73.92a7.154,7.154,0,0,1,5.429-6.324l35.244-8.616a7.156,7.156,0,0,1,8.828,7.583l-6.466,73.179a7.178,7.178,0,0,1-5.293,6.285l-35.276,9.358a7.222,7.222,0,0,1-1.845.241Z" transform="translate(-2517.028 -503.775)"/><path class="i" d="M2569.512,590.779l6.466-73.178a3.728,3.728,0,0,0-4.6-3.95l-35.244,8.616a3.728,3.728,0,0,0-2.828,3.294l-6.5,73.92a3.728,3.728,0,0,0,4.669,3.931l35.277-9.358A3.729,3.729,0,0,0,2569.512,590.779Z" transform="translate(-2523.366 -510.114)"/></g><g transform="translate(11.868 17.401)"><path d="M2554.194,553.4h0a2.6,2.6,0,0,0-2.106,2.322l-1.238,13.97a2.6,2.6,0,0,0,3.232,2.743h0a2.6,2.6,0,0,0,1.938-2.285l1.238-13.97A2.6,2.6,0,0,0,2554.194,553.4Z" transform="translate(-2550.84 -553.352)"/><g transform="translate(1.599 1.797)"><ellipse class="d" cx="1.66" cy="1.528" rx="1.66" ry="1.528" transform="translate(0 2.298) rotate(-43.813)"/><ellipse class="o" cx="1.354" cy="1.246" rx="1.354" ry="1.246" transform="translate(0.416 2.29) rotate(-43.813)"/><ellipse class="b" cx="1.354" cy="1.246" rx="1.354" ry="1.246" transform="translate(0.416 2.29) rotate(-43.813)"/></g><g transform="translate(1.292 6.201)"><ellipse class="d" cx="1.66" cy="1.528" rx="1.66" ry="1.528" transform="translate(0 2.298) rotate(-43.813)"/><ellipse class="o" cx="1.354" cy="1.246" rx="1.354" ry="1.246" transform="translate(0.416 2.29) rotate(-43.813)"/><ellipse class="p" cx="1.354" cy="1.246" rx="1.354" ry="1.246" transform="translate(0.416 2.29) rotate(-43.813)"/></g><g transform="translate(2.149 11.337)"><ellipse class="q" cx="0.784" cy="0.722" rx="0.784" ry="0.722" transform="translate(0 1.085) rotate(-43.813)"/><ellipse class="q" cx="0.639" cy="0.588" rx="0.639" ry="0.588" transform="translate(0.322 1.081) rotate(-43.813)"/><ellipse class="q" cx="0.639" cy="0.588" rx="0.639" ry="0.588" transform="translate(0.196 1.081) rotate(-43.813)"/></g></g><g class="r" transform="translate(21.673 39.701)"><path class="d" d="M2581.525,643.124l-.062.014a1.138,1.138,0,0,0-1.124-.389,1.939,1.939,0,0,0-1.56,1.657,1.082,1.082,0,0,0,1.339,1.181,1.951,1.951,0,0,0,1.551-1.579.651.651,0,0,0,.312-.48A.369.369,0,0,0,2581.525,643.124Zm-1.968.6c-.122.188-.294.306-.385.263s-.067-.23.056-.417.293-.3.384-.262S2579.679,643.54,2579.557,643.726Z" transform="translate(-2578.777 -633.658)"/><path class="d" d="M2580.188,644.786c-.122.188-.295.306-.385.263s-.067-.23.056-.417.293-.3.384-.262S2580.309,644.6,2580.188,644.786Z" transform="translate(-2579.406 -634.717)"/><path class="d" d="M2615.218,636.927a1.946,1.946,0,0,0-1.214.775.546.546,0,0,0-.061.006.662.662,0,0,0-.532.565.36.36,0,0,0,.244.389,1.079,1.079,0,0,0,1.342,1.1,1.94,1.94,0,0,0,1.56-1.657A1.081,1.081,0,0,0,2615.218,636.927Z" transform="translate(-2601.253 -629.88)"/><g transform="translate(3.009)"><path class="d" d="M2597.262,619.481a.819.819,0,0,0-.75-.767,1.117,1.117,0,0,0-.215,0l-.27.023a2.436,2.436,0,0,1,.25-.57.594.594,0,0,0,.267.012.875.875,0,0,0,.7-.75.489.489,0,0,0-.606-.532.877.877,0,0,0-.7.751.512.512,0,0,0,.1.363,3.4,3.4,0,0,0-.39.761c-.338.035-.711.079-1.1.132a.857.857,0,0,0-.566-.2,5.75,5.75,0,0,0-1.406.086,3.87,3.87,0,0,0-2.04.782c-.41.082-.8.166-1.15.249a2.383,2.383,0,0,0-.234-.684.779.779,0,0,0,.155-.4.488.488,0,0,0-.607-.531.876.876,0,0,0-.7.75.489.489,0,0,0,.607.531.793.793,0,0,0,.268-.1,1.3,1.3,0,0,1,.108.529l-.21.053a1.557,1.557,0,0,0-1.106,1.116,15.729,15.729,0,0,0-.239,1.91,15.489,15.489,0,0,0-.058,2.054.818.818,0,0,0,.752.767,1.135,1.135,0,0,0,.214,0l.148-.009.041.8,7.063-1.164.172-.859.105-.028a1.536,1.536,0,0,0,.707-.412,1.482,1.482,0,0,0,.4-.705,15.812,15.812,0,0,0,.238-1.909A15.455,15.455,0,0,0,2597.262,619.481Zm-8.9,1.294c-.126.161-.3.244-.387.187s-.055-.235.072-.4.3-.243.387-.186S2588.493,620.614,2588.365,620.774Zm2.89,2.2a.071.071,0,0,1-.09-.079.522.522,0,0,0-.65-.563.932.932,0,0,0-.747.8.132.132,0,0,1-.1.113.073.073,0,0,1-.091-.079,1.194,1.194,0,0,1,.957-1.026.667.667,0,0,1,.83.721A.13.13,0,0,1,2591.256,622.978Zm3.62-.567a.077.077,0,0,1-.1-.083.549.549,0,0,0-.684-.594.983.983,0,0,0-.786.844.14.14,0,0,1-.111.119.077.077,0,0,1-.1-.084,1.26,1.26,0,0,1,1.007-1.08.7.7,0,0,1,.875.76A.135.135,0,0,1,2594.875,622.411Z" transform="translate(-2587.349 -616.886)"/><path class="d" d="M2589.439,627.2c-.126.161-.3.244-.387.187s-.055-.235.072-.4.3-.243.387-.186S2589.566,627.041,2589.439,627.2Z" transform="translate(-2588.422 -623.313)"/></g><g transform="translate(2.411 8.936)"><path class="d" d="M2611.2,657.982h0a.247.247,0,0,1-.3-.269l.049-.626a.442.442,0,0,1,.355-.378h0a.247.247,0,0,1,.305.269l-.049.626A.444.444,0,0,1,2611.2,657.982Z" transform="translate(-2602.03 -651.664)"/><path class="d" d="M2585.951,662.141h0a.247.247,0,0,1-.306-.269l.049-.627a.444.444,0,0,1,.356-.378h0a.247.247,0,0,1,.305.269l-.049.627A.443.443,0,0,1,2585.951,662.141Z" transform="translate(-2585.644 -654.363)"/><path class="d" d="M2591.878,646.609a.609.609,0,0,0,.2-.108.781.781,0,0,0,.153-.164.8.8,0,0,0,.1-.2.837.837,0,0,0,.046-.211.682.682,0,0,0-.031-.29.384.384,0,0,0-.136-.178.482.482,0,0,0-.226-.079,1.129,1.129,0,0,0-.3.012l-.589.1-.17,2.183.434-.072.069-.88h.006l.473.791.527-.087Zm-.067-.311a.434.434,0,0,1-.135.076,1.011,1.011,0,0,1-.165.04l-.056.009.051-.657.06-.01a.927.927,0,0,1,.158-.013.3.3,0,0,1,.125.027.174.174,0,0,1,.078.082.337.337,0,0,1,.018.159.435.435,0,0,1-.043.169A.339.339,0,0,1,2591.811,646.3Zm.067.311a.609.609,0,0,0,.2-.108.781.781,0,0,0,.153-.164.8.8,0,0,0,.1-.2.837.837,0,0,0,.046-.211.682.682,0,0,0-.031-.29.384.384,0,0,0-.136-.178.482.482,0,0,0-.226-.079,1.129,1.129,0,0,0-.3.012l-.589.1-.17,2.183.434-.072.069-.88h.006l.473.791.527-.087Zm-.067-.311a.434.434,0,0,1-.135.076,1.011,1.011,0,0,1-.165.04l-.056.009.051-.657.06-.01a.927.927,0,0,1,.158-.013.3.3,0,0,1,.125.027.174.174,0,0,1,.078.082.337.337,0,0,1,.018.159.435.435,0,0,1-.043.169A.339.339,0,0,1,2591.811,646.3Zm.067.311a.609.609,0,0,0,.2-.108.781.781,0,0,0,.153-.164.8.8,0,0,0,.1-.2.837.837,0,0,0,.046-.211.682.682,0,0,0-.031-.29.384.384,0,0,0-.136-.178.482.482,0,0,0-.226-.079,1.129,1.129,0,0,0-.3.012l-.589.1-.17,2.183.434-.072.069-.88h.006l.473.791.527-.087Zm-.067-.311a.434.434,0,0,1-.135.076,1.011,1.011,0,0,1-.165.04l-.056.009.051-.657.06-.01a.927.927,0,0,1,.158-.013.3.3,0,0,1,.125.027.174.174,0,0,1,.078.082.337.337,0,0,1,.018.159.435.435,0,0,1-.043.169A.339.339,0,0,1,2591.811,646.3Zm.067.311a.609.609,0,0,0,.2-.108.781.781,0,0,0,.153-.164.8.8,0,0,0,.1-.2.837.837,0,0,0,.046-.211.682.682,0,0,0-.031-.29.384.384,0,0,0-.136-.178.482.482,0,0,0-.226-.079,1.129,1.129,0,0,0-.3.012l-.589.1-.17,2.183.434-.072.069-.88h.006l.473.791.527-.087Zm-.067-.311a.434.434,0,0,1-.135.076,1.011,1.011,0,0,1-.165.04l-.056.009.051-.657.06-.01a.927.927,0,0,1,.158-.013.3.3,0,0,1,.125.027.174.174,0,0,1,.078.082.337.337,0,0,1,.018.159.435.435,0,0,1-.043.169A.339.339,0,0,1,2591.811,646.3Zm4.149-3.946-8.217,1.354a.723.723,0,0,0-.594.728l.528,4.825a.411.411,0,0,0,.51.356l6.385-1.052a.748.748,0,0,0,.579-.535l1.3-5.127A.419.419,0,0,0,2595.96,642.353ZM2591.926,644a.922.922,0,0,1,.508-.234.889.889,0,0,1-.22.505.914.914,0,0,1-.507.235A.885.885,0,0,1,2591.926,644Zm-.84-.059a.912.912,0,0,1,.478.639,1.382,1.382,0,0,1-.911.114.913.913,0,0,1-.477-.639A1.38,1.38,0,0,1,2591.086,643.941Zm.384,4.307a1.342,1.342,0,0,1-1.662-1.466,2.406,2.406,0,0,1,1.937-2.059,1.342,1.342,0,0,1,1.662,1.465A2.407,2.407,0,0,1,2591.469,648.247Zm.612-1.747a.781.781,0,0,0,.153-.164.8.8,0,0,0,.1-.2.837.837,0,0,0,.046-.211.682.682,0,0,0-.031-.29.384.384,0,0,0-.136-.178.482.482,0,0,0-.226-.079,1.129,1.129,0,0,0-.3.012l-.589.1-.17,2.183.434-.072.069-.88h.006l.473.791.527-.087-.559-.817A.609.609,0,0,0,2592.081,646.5Zm-.271-.2a.434.434,0,0,1-.135.076,1.011,1.011,0,0,1-.165.04l-.056.009.051-.657.06-.01a.927.927,0,0,1,.158-.013.3.3,0,0,1,.125.027.174.174,0,0,1,.078.082.337.337,0,0,1,.018.159.435.435,0,0,1-.043.169A.339.339,0,0,1,2591.811,646.3Zm.067.311a.609.609,0,0,0,.2-.108.781.781,0,0,0,.153-.164.8.8,0,0,0,.1-.2.837.837,0,0,0,.046-.211.682.682,0,0,0-.031-.29.384.384,0,0,0-.136-.178.482.482,0,0,0-.226-.079,1.129,1.129,0,0,0-.3.012l-.589.1-.17,2.183.434-.072.069-.88h.006l.473.791.527-.087Zm-.067-.311a.434.434,0,0,1-.135.076,1.011,1.011,0,0,1-.165.04l-.056.009.051-.657.06-.01a.927.927,0,0,1,.158-.013.3.3,0,0,1,.125.027.174.174,0,0,1,.078.082.337.337,0,0,1,.018.159.435.435,0,0,1-.043.169A.339.339,0,0,1,2591.811,646.3Zm.067.311a.609.609,0,0,0,.2-.108.781.781,0,0,0,.153-.164.8.8,0,0,0,.1-.2.837.837,0,0,0,.046-.211.682.682,0,0,0-.031-.29.384.384,0,0,0-.136-.178.482.482,0,0,0-.226-.079,1.129,1.129,0,0,0-.3.012l-.589.1-.17,2.183.434-.072.069-.88h.006l.473.791.527-.087Zm-.067-.311a.434.434,0,0,1-.135.076,1.011,1.011,0,0,1-.165.04l-.056.009.051-.657.06-.01a.927.927,0,0,1,.158-.013.3.3,0,0,1,.125.027.174.174,0,0,1,.078.082.337.337,0,0,1,.018.159.435.435,0,0,1-.043.169A.339.339,0,0,1,2591.811,646.3Zm.067.311a.609.609,0,0,0,.2-.108.781.781,0,0,0,.153-.164.8.8,0,0,0,.1-.2.837.837,0,0,0,.046-.211.682.682,0,0,0-.031-.29.384.384,0,0,0-.136-.178.482.482,0,0,0-.226-.079,1.129,1.129,0,0,0-.3.012l-.589.1-.17,2.183.434-.072.069-.88h.006l.473.791.527-.087Zm-.067-.311a.434.434,0,0,1-.135.076,1.011,1.011,0,0,1-.165.04l-.056.009.051-.657.06-.01a.927.927,0,0,1,.158-.013.3.3,0,0,1,.125.027.174.174,0,0,1,.078.082.337.337,0,0,1,.018.159.435.435,0,0,1-.043.169A.339.339,0,0,1,2591.811,646.3Z" transform="translate(-2586.619 -642.345)"/></g><path class="d" d="M2598.873,652.214a.612.612,0,0,0,.2-.108.782.782,0,0,0,.153-.164.8.8,0,0,0,.1-.2.816.816,0,0,0,.046-.211.674.674,0,0,0-.031-.29.385.385,0,0,0-.137-.178.482.482,0,0,0-.226-.079,1.129,1.129,0,0,0-.3.012l-.589.1-.17,2.183.435-.072.068-.88h.006l.473.791.527-.087Zm-.067-.311a.437.437,0,0,1-.135.076,1.017,1.017,0,0,1-.165.04l-.056.009.051-.657.06-.01a.929.929,0,0,1,.158-.013.3.3,0,0,1,.125.027.176.176,0,0,1,.079.082.341.341,0,0,1,.018.159.443.443,0,0,1-.043.17A.339.339,0,0,1,2598.805,651.9Z" transform="translate(-2591.203 -639.015)"/></g></g><g transform="translate(2388.622 386.145)"><g transform="translate(0 0)"><path class="a" d="M2666.914,672.893a3.85,3.85,0,1,1,2.3-4.937A3.848,3.848,0,0,1,2666.914,672.893Z" transform="translate(-2656.027 -659.202)"/><path d="M2674.367,657.493a14.9,14.9,0,1,0-8.9,19.11A14.922,14.922,0,0,0,2674.367,657.493Zm-9.695,16.925a12.578,12.578,0,1,1,7.507-16.126A12.58,12.58,0,0,1,2664.672,674.419Z" transform="translate(-2645.458 -647.695)"/><path class="a" d="M2676.475,662.594a12.578,12.578,0,1,0-7.507,16.126A12.576,12.576,0,0,0,2676.475,662.594Zm-15.833,3.093a3.85,3.85,0,1,1,2.3-4.937A3.85,3.85,0,0,1,2660.641,665.687Z" transform="translate(-2649.754 -651.996)"/></g><path class="s" d="M2666.914,672.893a3.85,3.85,0,1,1,2.3-4.937A3.848,3.848,0,0,1,2666.914,672.893Z" transform="translate(-2656.027 -659.202)"/></g><g transform="translate(2320.72 394.497)"><path class="a" d="M2511.675,692.539a4.711,4.711,0,1,1-4.712-4.712A4.712,4.712,0,0,1,2511.675,692.539Z" transform="translate(-2484.615 -682.093)"/><path d="M2470.241,671.491a18.239,18.239,0,1,0,18.235,18.239A18.259,18.259,0,0,0,2470.241,671.491Zm0,33.394a15.155,15.155,0,1,1,15.152-15.155A15.154,15.154,0,0,1,2470.241,704.885Z" transform="translate(-2452.002 -671.491)"/><path class="a" d="M2475.942,680.276a15.155,15.155,0,1,0,15.152,15.155A15.154,15.154,0,0,0,2475.942,680.276Zm4.108,12.075a4.712,4.712,0,1,1,4.712-4.712A4.712,4.712,0,0,1,2480.051,692.351Z" transform="translate(-2457.704 -677.193)"/><path class="s" d="M2511.675,692.539a4.711,4.711,0,1,1-4.712-4.712A4.712,4.712,0,0,1,2511.675,692.539Z" transform="translate(-2484.615 -682.093)"/></g></g></g></svg>