<svg xmlns="http://www.w3.org/2000/svg" width="80.313" height="17.694" viewBox="0 0 80.313 17.694"><defs><style>.a{fill:#fff;}</style></defs><g transform="translate(-2978.99 211.255)"><path class="a" d="M2994.751-211.255a15.877,15.877,0,0,0-15.76,15.972,1.73,1.73,0,0,0,1.736,1.722,1.733,1.733,0,0,0,1.721-1.753,12.4,12.4,0,0,1,12.318-12.466,12.422,12.422,0,0,1,12.48,12.316,1.725,1.725,0,0,0,1.737,1.722,1.739,1.739,0,0,0,1.723-1.753A15.876,15.876,0,0,0,2994.751-211.255Z" transform="translate(0 0)"/><path class="a" d="M3006.792-211.255a15.883,15.883,0,0,0-15.758,15.972,1.735,1.735,0,0,0,1.743,1.722,1.736,1.736,0,0,0,1.719-1.753,12.4,12.4,0,0,1,12.317-12.466,12.412,12.412,0,0,1,12.476,12.316,1.73,1.73,0,0,0,1.745,1.722,1.736,1.736,0,0,0,1.72-1.753A15.878,15.878,0,0,0,3006.792-211.255Z" transform="translate(36.549 0)"/></g></svg>